<svg width="32" height="32" viewBox="0 0 32 32" fill="none" xmlns="http://www.w3.org/2000/svg">
<g clip-path="url(#clip0_172_33)">
<circle cx="16" cy="16" r="16" fill="#1C7F9E"/>
<path d="M6.924 24.052C6.48 24.052 6.09 24.016 5.754 23.944C5.418 23.872 5.124 23.698 4.872 23.422C4.632 23.146 4.512 22.72 4.512 22.144C4.512 21.34 4.752 20.26 5.232 18.904C5.724 17.548 6.366 16.186 7.158 14.818C6.558 14.854 6.084 14.944 5.736 15.088C5.388 15.232 5.16 15.454 5.052 15.754C5.1 15.754 5.148 15.814 5.196 15.934C5.256 16.054 5.286 16.18 5.286 16.312C5.286 16.528 5.19 16.702 4.998 16.834C4.806 16.954 4.566 17.014 4.278 17.014C3.942 17.014 3.672 16.924 3.468 16.744C3.264 16.564 3.162 16.306 3.162 15.97C3.162 15.562 3.318 15.19 3.63 14.854C3.954 14.518 4.398 14.254 4.962 14.062C5.526 13.858 6.15 13.756 6.834 13.756C7.086 13.756 7.398 13.774 7.77 13.81C8.754 12.25 9.792 10.978 10.884 9.994C11.988 8.998 13.038 8.5 14.034 8.5C14.61 8.5 15.084 8.584 15.456 8.752L12.63 22H10.038L11.424 15.466C10.98 15.262 10.572 15.112 10.2 15.016C9.828 14.92 9.432 14.854 9.012 14.818C8.328 16.294 7.764 17.806 7.32 19.354C6.888 20.89 6.672 22.12 6.672 23.044C6.672 23.5 6.756 23.836 6.924 24.052ZM12.63 9.778C12.114 10.054 11.574 10.57 11.01 11.326C10.458 12.07 9.918 12.976 9.39 14.044C10.254 14.212 10.986 14.422 11.586 14.674L12.63 9.778ZM19.4334 9.76C18.6294 10.096 18.0054 10.6 17.5614 11.272C17.1294 11.944 16.9134 12.754 16.9134 13.702C16.9134 14.146 16.9554 14.458 17.0394 14.638C17.1234 14.806 17.1654 14.902 17.1654 14.926C16.5174 14.926 16.0314 14.794 15.7074 14.53C15.3954 14.254 15.2394 13.804 15.2394 13.18C15.2394 12.412 15.5514 11.668 16.1754 10.948C16.8114 10.216 17.6214 9.628 18.6054 9.184C19.5894 8.728 20.5734 8.5 21.5574 8.5C21.7254 8.5 21.9654 8.512 22.2774 8.536L21.1254 13.9H23.7714L24.9234 8.536H27.5154L24.6534 22H22.0614L23.5014 15.232H20.8554L19.4154 22H16.8234L19.4334 9.76Z" fill="white"/>
</g>
<defs>
<clipPath id="clip0_172_33">
<rect width="32" height="32" fill="white"/>
</clipPath>
</defs>
</svg>
