<svg width="32" height="33" viewBox="0 0 32 33" fill="none" xmlns="http://www.w3.org/2000/svg">
<g clip-path="url(#clip0_9_4)">
<path d="M32 16.4243C32 7.53524 24.836 0.328247 16 0.328247C7.164 0.328247 0 7.53524 0 16.4243C0 24.4588 5.85067 31.1172 13.5 32.3244V21.0774H9.43733V16.4229H13.5V12.8792C13.5 8.84571 15.8893 6.61642 19.544 6.61642C21.2933 6.61642 23.1253 6.93164 23.1253 6.93164V10.8926H21.1067C19.1187 10.8926 18.4987 12.1333 18.4987 13.4063V16.4243H22.936L22.2267 21.0787H18.4987V32.3257C26.1493 31.1172 32 24.4575 32 16.4243Z" fill="white"/>
</g>
<defs>
<clipPath id="clip0_9_4">
<rect width="32" height="32.192" fill="white" transform="translate(0 0.229797)"/>
</clipPath>
</defs>
</svg>