<svg width="124" height="35" viewBox="0 0 124 35" fill="none" xmlns="http://www.w3.org/2000/svg">
<g clip-path="url(#clip0_226_34)">
<path d="M10.36 34.56C9.37333 34.56 8.50667 34.48 7.76 34.32C7.01333 34.16 6.36 33.7733 5.8 33.16C5.26667 32.5467 5 31.6 5 30.32C5 28.5333 5.53333 26.1333 6.6 23.12C7.69333 20.1067 9.12 17.08 10.88 14.04C9.54667 14.12 8.49333 14.32 7.72 14.64C6.94667 14.96 6.44 15.4533 6.2 16.12C6.30667 16.12 6.41333 16.2533 6.52 16.52C6.65333 16.7867 6.72 17.0667 6.72 17.36C6.72 17.84 6.50667 18.2267 6.08 18.52C5.65333 18.7867 5.12 18.92 4.48 18.92C3.73333 18.92 3.13333 18.72 2.68 18.32C2.22667 17.92 2 17.3467 2 16.6C2 15.6933 2.34667 14.8667 3.04 14.12C3.76 13.3733 4.74667 12.7867 6 12.36C7.25333 11.9067 8.64 11.68 10.16 11.68C10.72 11.68 11.4133 11.72 12.24 11.8C14.4267 8.33333 16.7333 5.50667 19.16 3.32C21.6133 1.10667 23.9467 0 26.16 0C27.44 0 28.4933 0.186666 29.32 0.559999L23.04 30H17.28L20.36 15.48C19.3733 15.0267 18.4667 14.6933 17.64 14.48C16.8133 14.2667 15.9333 14.12 15 14.04C13.48 17.32 12.2267 20.68 11.24 24.12C10.28 27.5333 9.8 30.2667 9.8 32.32C9.8 33.3333 9.98667 34.08 10.36 34.56ZM23.04 2.84C21.8933 3.45333 20.6933 4.6 19.44 6.28C18.2133 7.93333 17.0133 9.94667 15.84 12.32C17.76 12.6933 19.3867 13.16 20.72 13.72L23.04 2.84Z" fill="white"/>
<path d="M32.2388 30.24C30.9588 30.24 29.9187 29.84 29.1187 29.04C28.3454 28.2133 27.9587 26.9867 27.9587 25.36C27.9587 24.6933 28.0654 23.8267 28.2787 22.76L32.5588 2.72L38.4788 1.92L33.8787 23.52C33.7721 23.92 33.7188 24.3067 33.7188 24.68C33.7188 25.7467 34.2654 26.28 35.3587 26.28C35.8387 26.28 36.2654 26.2 36.6387 26.04C36.5321 27.3733 36.0521 28.4133 35.1987 29.16C34.3721 29.88 33.3854 30.24 32.2388 30.24Z" fill="white"/>
<path d="M55.1119 2.8C53.3252 3.54667 51.9385 4.66667 50.9519 6.16C49.9919 7.65333 49.5119 9.45333 49.5119 11.56C49.5119 12.5467 49.6052 13.24 49.7919 13.64C49.9785 14.0133 50.0719 14.2267 50.0719 14.28C48.6319 14.28 47.5519 13.9867 46.8319 13.4C46.1385 12.7867 45.7919 11.7867 45.7919 10.4C45.7919 8.69333 46.4852 7.04 47.8719 5.44C49.2852 3.81333 51.0852 2.50667 53.2719 1.52C55.4585 0.506667 57.6452 0 59.8319 0C60.2052 0 60.7385 0.0266666 61.4319 0.0800009L58.8719 12H64.7519L67.3119 0.0800009H73.0719L66.7119 30H60.9519L64.1519 14.96H58.2719L55.0719 30H49.3119L55.1119 2.8Z" fill="white"/>
<path d="M78.5934 7.84C77.7134 7.84 76.9668 7.53333 76.3534 6.92C75.7401 6.30667 75.4334 5.56 75.4334 4.68C75.4334 3.8 75.7401 3.05333 76.3534 2.44C76.9668 1.8 77.7134 1.48 78.5934 1.48C79.4734 1.48 80.2201 1.8 80.8334 2.44C81.4734 3.05333 81.7934 3.8 81.7934 4.68C81.7934 5.56 81.4734 6.30667 80.8334 6.92C80.2201 7.53333 79.4734 7.84 78.5934 7.84ZM75.8734 30.24C74.5934 30.24 73.5534 29.84 72.7534 29.04C71.9801 28.24 71.5934 27.04 71.5934 25.44C71.5934 24.7733 71.7001 23.9067 71.9134 22.84L74.6334 10H80.3934L77.5134 23.6C77.4068 24 77.3534 24.4267 77.3534 24.88C77.3534 25.4133 77.4734 25.8 77.7134 26.04C77.9801 26.2533 78.4068 26.36 78.9934 26.36C79.7668 26.36 80.4868 26.04 81.1534 25.4C81.8201 24.7333 82.3001 23.88 82.5934 22.84H84.2734C83.2868 25.72 82.0201 27.68 80.4734 28.72C78.9268 29.7333 77.3934 30.24 75.8734 30.24Z" fill="white"/>
<path d="M86.5375 30.24C85.2575 30.24 84.2175 29.84 83.4175 29.04C82.6442 28.24 82.2575 27.04 82.2575 25.44C82.2575 24.7733 82.3642 23.9067 82.5775 22.84L86.8575 2.8L92.7775 2L88.1775 23.6C88.0708 24 88.0175 24.4267 88.0175 24.88C88.0175 25.4133 88.1375 25.8 88.3775 26.04C88.6442 26.2533 89.0708 26.36 89.6575 26.36C90.4308 26.36 91.1508 26.04 91.8175 25.4C92.4842 24.7333 92.9642 23.88 93.2575 22.84H94.9375C93.9508 25.72 92.6842 27.68 91.1375 28.72C89.5908 29.7333 88.0575 30.24 86.5375 30.24Z" fill="white"/>
<path d="M98.0416 30.24C96.5216 30.24 95.2549 29.72 94.2416 28.68C93.2282 27.64 92.7216 26.0133 92.7216 23.8C92.7216 21.8267 93.1082 19.76 93.8816 17.6C94.6816 15.4133 95.8549 13.5733 97.4016 12.08C98.9749 10.56 100.842 9.8 103.002 9.8C104.095 9.8 104.908 9.98667 105.442 10.36C105.975 10.7333 106.242 11.2267 106.242 11.84V12.12L106.682 10H112.442L109.562 23.6C109.455 24 109.402 24.4267 109.402 24.88C109.402 26.0267 109.948 26.6 111.042 26.6C111.788 26.6 112.428 26.2533 112.962 25.56C113.522 24.8667 113.962 23.96 114.282 22.84H115.962C114.975 25.72 113.748 27.68 112.282 28.72C110.842 29.7333 109.388 30.24 107.922 30.24C106.802 30.24 105.895 29.9333 105.202 29.32C104.535 28.68 104.135 27.76 104.002 26.56C103.228 27.6533 102.362 28.5467 101.402 29.24C100.468 29.9067 99.3482 30.24 98.0416 30.24ZM100.642 26.36C101.308 26.36 101.962 26.0533 102.602 25.44C103.268 24.8 103.722 23.9333 103.962 22.84L105.882 13.8C105.882 13.4533 105.748 13.12 105.482 12.8C105.215 12.4533 104.802 12.28 104.242 12.28C103.175 12.28 102.215 12.9067 101.362 14.16C100.508 15.3867 99.8416 16.88 99.3616 18.64C98.8816 20.3733 98.6416 21.9067 98.6416 23.24C98.6416 24.5733 98.8282 25.4267 99.2016 25.8C99.6016 26.1733 100.082 26.36 100.642 26.36Z" fill="white"/>
<path d="M118.176 30.24C116.896 30.24 115.856 29.84 115.056 29.04C114.283 28.2133 113.896 26.9867 113.896 25.36C113.896 24.6933 114.003 23.8267 114.216 22.76L118.496 2.72L124.416 1.92L119.816 23.52C119.71 23.92 119.656 24.3067 119.656 24.68C119.656 25.7467 120.203 26.28 121.296 26.28C121.776 26.28 122.203 26.2 122.576 26.04C122.47 27.3733 121.99 28.4133 121.136 29.16C120.31 29.88 119.323 30.24 118.176 30.24Z" fill="white"/>
</g>
<defs>
<clipPath id="clip0_226_34">
<rect width="124" height="35" fill="white"/>
</clipPath>
</defs>
</svg>
